<svg xmlns="http://www.w3.org/2000/svg" viewBox="0 0 371.15 85.93">
	<defs>
		<style>
			.cls-1,.cls-2{fill:#fff;}.cls-2{fill-rule:evenodd;}
		</style>
	</defs>
	<title>
		Asset 5
	</title>
	<g id="Layer_2" data-name="Layer 2">
		<g id="Layer_1-2" data-name="Layer 1">
			<path class="cls-1" d="M35.64,30.5a10.17,10.17,0,0,1,7.67,3.1q3,3.09,3,9.65v26H44.35V43.32q0-5.76-2.52-8.39a8.25,8.25,0,0,0-6.19-2.63,11.44,11.44,0,0,0-8.32,3.13q-3.19,3.14-3.2,10.41v23.4H22.18V43.32q0-5.76-2.52-8.39a8.28,8.28,0,0,0-6.2-2.63,12.36,12.36,0,0,0-5.79,1.37A9.77,9.77,0,0,0,3.49,38a17,17,0,0,0-1.55,7.81v23.4H0v-38H1.58l.29,6.91H2a14.76,14.76,0,0,1,2.12-3.49,11.42,11.42,0,0,1,3.67-2.95,12.12,12.12,0,0,1,5.65-1.19,10.16,10.16,0,0,1,6.38,2,10.06,10.06,0,0,1,3.56,5.83h.14a11.94,11.94,0,0,1,4.32-5.69A13.08,13.08,0,0,1,35.64,30.5Z" />
			<path class="cls-1" d="M58.89,17.33a1.55,1.55,0,0,1,1.52.68,3.28,3.28,0,0,1,.36,1.55,3.21,3.21,0,0,1-.36,1.58,1.6,1.6,0,0,1-1.52.65,1.48,1.48,0,0,1-1.43-.65,3.1,3.1,0,0,1-.37-1.58A3.17,3.17,0,0,1,57.46,18,1.44,1.44,0,0,1,58.89,17.33Zm.94,13.89v38H57.89v-38Z" />
			<path class="cls-1" d="M87,30.5q5.76,0,9,3.39t3.2,10.44V69.24H97.2V44.4q0-6.34-2.7-9.22T86.9,32.3A12.42,12.42,0,0,0,77.51,36q-3.57,3.7-3.57,11.48V69.24H72v-38h1.58l.29,8H74A14.22,14.22,0,0,1,76.43,35a12.24,12.24,0,0,1,4.21-3.24A14.4,14.4,0,0,1,87,30.5Z" />
			<path class="cls-1" d="M123.91,70q-7.71,0-11.41-4.9T108.79,51q0-9.87,4-15.16t11.67-5.29a11.39,11.39,0,0,1,7.77,2.59,13.61,13.61,0,0,1,4.11,6.34h.21q-.21-4.89-.21-9.29V14.52h2V69.24H136.8l-.29-8.14h-.14a13.66,13.66,0,0,1-4.18,6.23Q129.16,70,123.91,70Zm.07-1.8q6.7,0,9.58-4.72t2.88-13.14v-.21q0-8.64-2.95-13.22t-9-4.57q-6.55,0-10.12,4.65t-3.56,14Q110.81,68.16,124,68.16Z" />
			<path class="cls-1" d="M162.07,33H154V69.24h-1.95V33h-6.91V31.44l6.91-.22v-5.4q0-5.61,2.27-8.64t7.52-3a16.31,16.31,0,0,1,3.06.25c.89.17,1.74.37,2.56.61l-.29,1.87a12,12,0,0,0-2.63-.72,18.14,18.14,0,0,0-2.7-.21q-4.24,0-6,2.3T154,25.82v5.4h8.06Z" />
			<path class="cls-1" d="M195.84,31.22v38h-1.59l-.29-8h-.14a14.19,14.19,0,0,1-2.41,4.21,12.34,12.34,0,0,1-4.21,3.24A14.25,14.25,0,0,1,180.93,70q-6,0-9.14-3.53t-3.1-10.3V31.22h1.95V55.85c0,4.22.88,7.33,2.66,9.32s4.32,3,7.63,3a12.44,12.44,0,0,0,9.44-3.71q3.52-3.71,3.52-11.48V31.22Z" />
			<path class="cls-1" d="M210.09,69.24h-1.94V14.52h1.94Z" />
			<path class="cls-1" d="M218.19,45q1.45-5.51,4.71-7.48c2.17-1.33,5-1.52,8.52-.59a26.47,26.47,0,0,1,4.34,1.58,15.17,15.17,0,0,1,3.86,2.5A8.88,8.88,0,0,1,242,44.56a8,8,0,0,1,0,4.86,13.23,13.23,0,0,1-2.85,5.39A25.89,25.89,0,0,1,234.51,59a38.3,38.3,0,0,1-5.58,3.18c-2,.92-3.8,1.79-5.51,2.63a3.35,3.35,0,0,0-.45.88c-.18.46-.29.77-.33.92a7.71,7.71,0,0,0,.1,4.06c.4,1.45.86,3,1.39,4.48a44.59,44.59,0,0,1,1.3,4.69,9.7,9.7,0,0,1-.08,4.64q-.36,1.36-1,1.47a7.56,7.56,0,0,1-2.45-.38,5.43,5.43,0,0,1-1.67-2.72,30.33,30.33,0,0,1-1.12-4.69q-.47-2.73-.7-6c-.17-2.2-.28-4.43-.35-6.7-.08-2.91-.1-3.72-.1-6.69q0-3.3.07-6.08c0-1.84.07-3.44.09-4.79S218.16,45.52,218.19,45Zm4.68,1.78c-.15.57-.33,1.4-.54,2.5a20.45,20.45,0,0,0-.37,3.32,9.1,9.1,0,0,0,.37,3,2.41,2.41,0,0,0,1.74,1.71,6.62,6.62,0,0,0,3.85-.25,13.89,13.89,0,0,0,4-2.16,18.91,18.91,0,0,0,3.29-3.28,10,10,0,0,0,1.88-3.54,3.55,3.55,0,0,0-.08-2.41,4.87,4.87,0,0,0-1.39-1.76,7.39,7.39,0,0,0-2.07-1.22,20.76,20.76,0,0,0-2.23-.74,6.92,6.92,0,0,0-5.41.41A6.78,6.78,0,0,0,222.87,46.75Z" />
			<path class="cls-1" d="M248,45.33q0-.34,0-1.26c0-.6,0-1.24,0-1.9s0-1.28,0-1.85,0-1,0-1.2a10.09,10.09,0,0,1,1-1.38,3.08,3.08,0,0,1,1.17-.93,2.06,2.06,0,0,1,1.35-.09,2.89,2.89,0,0,1,1.5,1.17v1.23c0,.2-.12.65-.24,1.38s-.25,1.51-.41,2.37-.3,1.65-.44,2.37a9.68,9.68,0,0,0-.2,1.38A19.93,19.93,0,0,0,252,49.4a35.06,35.06,0,0,0,.68,3.49,31.42,31.42,0,0,0,1.11,3.63,15.88,15.88,0,0,0,1.61,3.25,10.37,10.37,0,0,0,2.08,2.38,4.1,4.1,0,0,0,2.67.93,5.69,5.69,0,0,0,3.31-1A9.59,9.59,0,0,0,266,59.51a15.17,15.17,0,0,0,1.73-3.57,34.13,34.13,0,0,0,1.08-4,38.29,38.29,0,0,0,.59-3.89c.11-1.25.17-2.35.17-3.28a17.44,17.44,0,0,0-.2-2.67c-.14-.84-.31-1.67-.5-2.49s-.36-1.63-.5-2.43a14.06,14.06,0,0,1-.2-2.43,1.7,1.7,0,0,1,.79-1.59,3.43,3.43,0,0,1,1.78-.47,2.77,2.77,0,0,1,2,.74,5.34,5.34,0,0,1,1.2,1.84,10,10,0,0,1,.58,2.55,27.45,27.45,0,0,1,.15,2.84q0,1.41-.06,2.67c0,.84-.06,1.51-.06,2a40.62,40.62,0,0,1-.29,4.51,35.25,35.25,0,0,1-1,5.19,43.27,43.27,0,0,1-1.81,5.24,21.17,21.17,0,0,1-2.64,4.6,13.19,13.19,0,0,1-3.57,3.25,8.59,8.59,0,0,1-4.54,1.23A8.37,8.37,0,0,1,256,68.09a11,11,0,0,1-3.37-3.34A21.53,21.53,0,0,1,250.31,60a35.68,35.68,0,0,1-1.43-5.28,48,48,0,0,1-.71-5.12C248,48,248,46.54,248,45.33Z" />
			<path class="cls-1" d="M289.34,69.6c.62-.43,1.37-1,2.25-1.67s1.77-1.41,2.67-2.2a29.33,29.33,0,0,0,2.52-2.46,13.9,13.9,0,0,0,1.84-2.49,4.64,4.64,0,0,0,.68-2.25,2.05,2.05,0,0,0-1.06-1.76c-1.25,0-2.62,0-4.1.15s-3,.13-4.45.11a27.41,27.41,0,0,1-4.31-.38,10.93,10.93,0,0,1-3.72-1.29,6.88,6.88,0,0,1-2.61-2.66,9.08,9.08,0,0,1-1-4.43,13.24,13.24,0,0,1,1.2-5.71,15.58,15.58,0,0,1,3.19-4.51A24,24,0,0,1,287,34.59,39.42,39.42,0,0,1,292,32a7.56,7.56,0,0,1,2.82,1.47A12.57,12.57,0,0,1,297,35.85a3.45,3.45,0,0,1-1.61,2,14.88,14.88,0,0,1-2.75,1.23l-3.26,1.12a12.12,12.12,0,0,0-3.07,1.55A8.16,8.16,0,0,0,284,44.26a7.84,7.84,0,0,0-.93,4.07,3.61,3.61,0,0,0,.93,2.75,5.1,5.1,0,0,0,2.46,1.21,14,14,0,0,0,3.46.23c1.29-.06,2.61-.15,4-.26s2.66-.19,3.95-.21a10.66,10.66,0,0,1,3.46.47,5.14,5.14,0,0,1,2.43,1.61,5.07,5.07,0,0,1,.91,3.28,6.6,6.6,0,0,1-.62,2.41A22.71,22.71,0,0,1,302.37,63a27.07,27.07,0,0,1-2.4,3.31,27.86,27.86,0,0,1-2.87,3,18.16,18.16,0,0,1-3,2.17,5.73,5.73,0,0,1-2.78.85,1.57,1.57,0,0,1-1.61-.88A4.3,4.3,0,0,1,289.34,69.6Z" />
			<path class="cls-1" d="M318.27,33.68c-.63.43-1.38,1-2.26,1.67s-1.77,1.41-2.67,2.2A32.55,32.55,0,0,0,310.82,40,13.9,13.9,0,0,0,309,42.5a4.64,4.64,0,0,0-.68,2.25,2.08,2.08,0,0,0,1.06,1.76c1.25,0,2.62,0,4.1-.15s3-.13,4.45-.11a27.41,27.41,0,0,1,4.31.38,10.93,10.93,0,0,1,3.72,1.29,6.81,6.81,0,0,1,2.61,2.66,9.05,9.05,0,0,1,1,4.43,13.1,13.1,0,0,1-1.21,5.71,15.58,15.58,0,0,1-3.19,4.51,24,24,0,0,1-4.48,3.46,6.67,6.67,0,0,1-4.35,1.16,4.84,4.84,0,0,1-3-1,9.48,9.48,0,0,1-2-2c.27-.86,0-1,.91-1.41A26.71,26.71,0,0,1,315,64.21l3.25-1.12a12.29,12.29,0,0,0,3.07-1.55A8.16,8.16,0,0,0,323.6,59a7.86,7.86,0,0,0,.94-4.07,3.65,3.65,0,0,0-.94-2.76,5.17,5.17,0,0,0-2.46-1.2,14,14,0,0,0-3.46-.23c-1.29.06-2.61.15-4,.26s-2.66.19-4,.21a10.66,10.66,0,0,1-3.46-.47A4.52,4.52,0,0,1,303,45.87a6.6,6.6,0,0,1,.62-2.41,23.86,23.86,0,0,1,1.64-3.13,27.07,27.07,0,0,1,2.4-3.31,27.88,27.88,0,0,1,2.87-3,18.16,18.16,0,0,1,3-2.17,5.68,5.68,0,0,1,2.78-.85,1.56,1.56,0,0,1,1.61.88A4.31,4.31,0,0,1,318.27,33.68Z" />
			<path class="cls-2" d="M355.34,40.12a5.28,5.28,0,0,1,3.27,5c2.83-.22,7.4,2,6.53,6.1-1.09,4.35-7.18,5.22-9.58,2.82A4.52,4.52,0,0,1,349.25,53c-3.05.65-7.83-2.62-7-7,.87-3.92,5.44-4.13,8-2.83A5.22,5.22,0,0,1,355.34,40.12Z" />
			<ellipse class="cls-1" cx="352.12" cy="33.62" rx="3.7" ry="5.22" transform="translate(-1.6 32.02) rotate(-5.19)" />
			<ellipse class="cls-1" cx="361.18" cy="35.62" rx="5.22" ry="3.7" transform="translate(148.89 329.99) rotate(-59.84)" />
			<ellipse class="cls-1" cx="343.68" cy="37.33" rx="3.29" ry="4.74" transform="translate(0.16 76.14) rotate(-12.65)" />
			<ellipse class="cls-1" cx="367.25" cy="42.55" rx="4.74" ry="3.29" transform="translate(109.39 307.5) rotate(-52.39)" />
			<path class="cls-2" d="M326.16,12.08c1.53-.44,3.92.22,5.44,2.83,2.4-1.74,7.4-2.18,8.71,1.74,1.3,4.35-3.7,8.05-7,7.4-.65,2.17-3.91,3.26-5.87,2.17-2.4,2-8.27,1.74-9.58-2.61-1.09-3.7,2.83-6.31,5.44-6.31C323.33,14.47,324.86,12.51,326.16,12.08Z" />
			<ellipse class="cls-1" cx="320.2" cy="8.03" rx="3.7" ry="5.22" transform="translate(54.26 186.55) rotate(-35.31)" />
			<ellipse class="cls-1" cx="329.04" cy="5.22" rx="3.7" ry="5.22" />
			<ellipse class="cls-1" cx="314.77" cy="15.48" rx="3.29" ry="4.74" transform="translate(73.15 217.82) rotate(-42.76)" />
			<ellipse class="cls-1" cx="337.78" cy="8.17" rx="4.74" ry="3.29" transform="translate(285.59 341.99) rotate(-82.5)" />
		</g>
	</g>
</svg>
