<svg xmlns="http://www.w3.org/2000/svg" viewBox="0 0 373.88 92.93"><defs><style>.cls-1{fill:#fff;}.cls-2,.cls-3{fill:#b87333;}.cls-2{fill-rule:evenodd;}</style></defs><title>Asset 1</title><g id="Layer_2" data-name="Layer 2"><g id="Layer_1-2" data-name="Layer 1"><path class="cls-1" d="M35.41,34.5A10.08,10.08,0,0,1,43,37.61q3,3.11,3,9.68V73.38H44V47.46q0-5.76-2.49-8.39a8.11,8.11,0,0,0-6.12-2.63,11.17,11.17,0,0,0-8.22,3.13Q24,42.71,24,50v23.4H22V47.46q0-5.76-2.49-8.39a8.11,8.11,0,0,0-6.12-2.63,12.12,12.12,0,0,0-5.73,1.37,9.75,9.75,0,0,0-4.13,4.35A17.22,17.22,0,0,0,2,50v23.4H0v-26l1.29-4.07.57-1.19.22-.44a12.51,12.51,0,0,1,2-3.07,11.5,11.5,0,0,1,3.65-3,12,12,0,0,1,5.62-1.19,10,10,0,0,1,6.33,2,10.14,10.14,0,0,1,3.54,5.86h.14a11.85,11.85,0,0,1,4.3-5.71A12.82,12.82,0,0,1,35.41,34.5Z"/><path class="cls-1" d="M58.63,21.33a1.54,1.54,0,0,1,1.51.68,3.28,3.28,0,0,1,.36,1.55,3.21,3.21,0,0,1-.36,1.58,1.59,1.59,0,0,1-1.51.65,1.5,1.5,0,0,1-1.44-.65,3.21,3.21,0,0,1-.36-1.58A3.28,3.28,0,0,1,57.19,22,1.46,1.46,0,0,1,58.63,21.33ZM60,35.38v38H58v-38Z"/><path class="cls-1" d="M86.9,34.66q5.73,0,8.91,3.38T99,48.49V73.38H97V48.54q0-6.34-2.67-9.22a9.74,9.74,0,0,0-7.51-2.88,12.25,12.25,0,0,0-9.3,3.71Q74,43.86,74,51.63V73.38H72v-38h1.58l.28,8H74a13.86,13.86,0,0,1,2.4-4.22,12.22,12.22,0,0,1,4.18-3.24A14.28,14.28,0,0,1,86.9,34.66Z"/><path class="cls-1" d="M123.66,74.37q-7.81,0-11.58-5t-3.77-14.33q0-10,4.1-15.38t11.84-5.38a11.55,11.55,0,0,1,7.89,2.63,13.82,13.82,0,0,1,4.17,6.44h-.1q-.21-4.92-.21-9.32V18.38h2v55h-1.56l-.28-8h.15a14,14,0,0,1-4.24,6.32Q129,74.37,123.66,74.37Zm-.12-2.21q6.7,0,9.58-4.72T136,54.3v-.21q0-8.64-2.95-13.22t-9-4.57q-6.55,0-10.12,4.65t-3.56,14Q110.37,72.16,123.54,72.16Z"/><path class="cls-1" d="M162,37.38h-8v36h-2v-36h-7V35.8l7-.21V30c0-3.85.78-6.82,2.33-8.89S158.47,18,162.08,18a16.57,16.57,0,0,1,3.15.26,25.92,25.92,0,0,1,2.63.63l-.3,1.92a12.19,12.19,0,0,0-2.7-.74,18.12,18.12,0,0,0-2.78-.22c-2.92,0-5,.79-6.23,2.37S154,26.39,154,30v5.39h8Z"/><path class="cls-1" d="M196,35.38v38h-1.59l-.28-8h-1a14.19,14.19,0,0,1-2.41,4.21,12.34,12.34,0,0,1-4.21,3.23,14.2,14.2,0,0,1-6.26,1.26q-6,0-9.14-3.52T168,60.27V35.38h2V60q0,6.33,2.63,9.32c1.76,2,4.28,3,7.55,3a12.19,12.19,0,0,0,9.33-3.71Q193,64.9,193,57.12V35.38Z"/><path class="cls-1" d="M210,73.38h-2v-55h2Z"/><path class="cls-1" d="M220.92,52q1.46-5.51,4.71-7.48c2.17-1.33,5-1.52,8.53-.59a27.15,27.15,0,0,1,4.34,1.58,15.29,15.29,0,0,1,3.85,2.5,8.88,8.88,0,0,1,2.41,3.58,8.09,8.09,0,0,1,0,4.86,13.25,13.25,0,0,1-2.86,5.39A25.24,25.24,0,0,1,237.24,66a38.19,38.19,0,0,1-5.57,3.18c-2,.92-3.8,1.79-5.52,2.63a3.7,3.7,0,0,0-.45.88c-.18.46-.29.77-.33.92a7.62,7.62,0,0,0,.11,4.06c.4,1.45.86,3,1.38,4.48a42.3,42.3,0,0,1,1.3,4.69,9.7,9.7,0,0,1-.08,4.64q-.36,1.36-1,1.47a7.56,7.56,0,0,1-2.45-.38A5.5,5.5,0,0,1,223,89.82a31.53,31.53,0,0,1-1.12-4.69q-.47-2.73-.7-6c-.17-2.2-.28-4.43-.35-6.7-.08-2.91-.1-3.72-.1-6.69q0-3.3.07-6.08c0-1.84.07-3.44.09-4.79S220.89,52.52,220.92,52Zm4.68,1.78c-.15.57-.33,1.4-.54,2.5a21.62,21.62,0,0,0-.37,3.32,9.09,9.09,0,0,0,.38,3,2.38,2.38,0,0,0,1.73,1.71,6.62,6.62,0,0,0,3.85-.25,13.89,13.89,0,0,0,4-2.16,19,19,0,0,0,3.3-3.28,10,10,0,0,0,1.87-3.54,3.55,3.55,0,0,0-.08-2.41,5,5,0,0,0-1.38-1.76,7.59,7.59,0,0,0-2.08-1.22A20.62,20.62,0,0,0,234,49a6.94,6.94,0,0,0-5.42.41A6.78,6.78,0,0,0,225.6,53.75Z"/><path class="cls-1" d="M249.9,49.33q0-.34,0-1.26c0-.6,0-1.24,0-1.9s0-1.28,0-1.85,0-1,0-1.2a9.36,9.36,0,0,1,1-1.38,3.08,3.08,0,0,1,1.17-.93,2.06,2.06,0,0,1,1.35-.09A2.91,2.91,0,0,1,255,41.89v1.23c0,.2-.12.65-.23,1.38s-.26,1.51-.41,2.37-.31,1.65-.44,2.37a10.36,10.36,0,0,0-.21,1.38A20.15,20.15,0,0,0,254,53.4a34.93,34.93,0,0,0,.67,3.49,31.42,31.42,0,0,0,1.11,3.63,16.41,16.41,0,0,0,1.61,3.25,10.61,10.61,0,0,0,2.08,2.38,4.12,4.12,0,0,0,2.67.93,5.69,5.69,0,0,0,3.31-1,9.3,9.3,0,0,0,2.49-2.58,15.17,15.17,0,0,0,1.73-3.57,32.29,32.29,0,0,0,1.08-4,35.67,35.67,0,0,0,.59-3.89c.12-1.25.17-2.35.17-3.28a16.26,16.26,0,0,0-.2-2.67c-.14-.84-.3-1.67-.5-2.49s-.36-1.63-.5-2.43a15.13,15.13,0,0,1-.2-2.43,1.7,1.7,0,0,1,.79-1.59,3.47,3.47,0,0,1,1.79-.47,2.75,2.75,0,0,1,2,.74,5.07,5.07,0,0,1,1.2,1.84,9.94,9.94,0,0,1,.59,2.55c.09,1,.14,1.91.14,2.84s0,1.83-.06,2.67-.05,1.51-.05,2a38.51,38.51,0,0,1-.3,4.51,35.19,35.19,0,0,1-1,5.19,43.33,43.33,0,0,1-1.82,5.24,20.38,20.38,0,0,1-2.64,4.6,12.9,12.9,0,0,1-3.57,3.25,8.56,8.56,0,0,1-4.54,1.23,8.39,8.39,0,0,1-4.63-1.26,11.06,11.06,0,0,1-3.37-3.34A21.07,21.07,0,0,1,252.25,64a34.55,34.55,0,0,1-1.44-5.28,47.89,47.89,0,0,1-.7-5.12C250,52,249.9,50.54,249.9,49.33Z"/><path class="cls-1" d="M291.07,72.6c.62-.43,1.37-1,2.25-1.67s1.77-1.41,2.67-2.2a29.33,29.33,0,0,0,2.52-2.46,13.9,13.9,0,0,0,1.84-2.49,4.64,4.64,0,0,0,.68-2.25A2.05,2.05,0,0,0,300,59.77c-1.25,0-2.61,0-4.1.15s-3,.13-4.45.11a27.41,27.41,0,0,1-4.31-.38,11,11,0,0,1-3.72-1.29,6.88,6.88,0,0,1-2.61-2.66,9.08,9.08,0,0,1-1-4.43,13.24,13.24,0,0,1,1.2-5.71,15.58,15.58,0,0,1,3.19-4.51,24,24,0,0,1,4.48-3.46,39.42,39.42,0,0,1,5-2.55,7.49,7.49,0,0,1,2.82,1.47,12.25,12.25,0,0,1,2.22,2.34,3.45,3.45,0,0,1-1.61,2,14.88,14.88,0,0,1-2.75,1.23l-3.25,1.12a12,12,0,0,0-3.08,1.55,8,8,0,0,0-2.31,2.52,7.74,7.74,0,0,0-.94,4.07,3.58,3.58,0,0,0,.94,2.75,5,5,0,0,0,2.46,1.21,13.85,13.85,0,0,0,3.45.23c1.29-.06,2.61-.15,4-.26s2.66-.19,3.95-.21a10.66,10.66,0,0,1,3.46.47,4.52,4.52,0,0,1,3.34,4.89,6.56,6.56,0,0,1-.61,2.41A22.85,22.85,0,0,1,304.1,66a27.07,27.07,0,0,1-2.4,3.31,27.86,27.86,0,0,1-2.87,3,17.75,17.75,0,0,1-3,2.17,5.73,5.73,0,0,1-2.78.85,1.57,1.57,0,0,1-1.61-.88A4.3,4.3,0,0,1,291.07,72.6Z"/><path class="cls-1" d="M320,37.68c-.63.43-1.38,1-2.26,1.67s-1.76,1.41-2.66,2.2A29.33,29.33,0,0,0,312.56,44a14,14,0,0,0-1.85,2.49,4.61,4.61,0,0,0-.67,2.25,2.06,2.06,0,0,0,1,1.76c1.25,0,2.62,0,4.1-.15s3-.13,4.46-.11a27.29,27.29,0,0,1,4.3.38,10.93,10.93,0,0,1,3.72,1.29,6.75,6.75,0,0,1,2.61,2.66,8.94,8.94,0,0,1,1,4.43,13.24,13.24,0,0,1-1.2,5.71,15.62,15.62,0,0,1-3.2,4.51,23.65,23.65,0,0,1-4.48,3.46A6.67,6.67,0,0,1,318,73.85a4.84,4.84,0,0,1-3-1,9.48,9.48,0,0,1-2-2c.27-.86,0-1,.91-1.41a26.71,26.71,0,0,1,2.76-1.23l3.25-1.12A12.53,12.53,0,0,0,323,65.54,8.13,8.13,0,0,0,325.33,63a7.76,7.76,0,0,0,.94-4.07,3.62,3.62,0,0,0-.94-2.76,5.08,5.08,0,0,0-2.46-1.2,14,14,0,0,0-3.46-.23c-1.29.06-2.61.15-4,.26s-2.67.19-4,.21a10.66,10.66,0,0,1-3.46-.47,4.52,4.52,0,0,1-3.34-4.89,6.6,6.6,0,0,1,.62-2.41A23.86,23.86,0,0,1,307,44.33a28.17,28.17,0,0,1,2.4-3.31,27.88,27.88,0,0,1,2.87-3,18.59,18.59,0,0,1,3-2.17A5.68,5.68,0,0,1,318,35a1.57,1.57,0,0,1,1.61.88A4.47,4.47,0,0,1,320,37.68Z"/><path class="cls-2" d="M358.08,42.12a5.29,5.29,0,0,1,3.26,5c2.83-.22,7.4,2,6.53,6.1-1.09,4.35-7.18,5.22-9.58,2.82A4.52,4.52,0,0,1,352,55c-3,.65-7.83-2.62-7-7,.87-3.92,5.44-4.13,8.05-2.83A5.23,5.23,0,0,1,358.08,42.12Z"/><ellipse class="cls-3" cx="354.85" cy="35.62" rx="3.7" ry="5.22" transform="translate(-1.77 32.28) rotate(-5.19)"/><ellipse class="cls-3" cx="363.91" cy="37.62" rx="5.22" ry="3.7" transform="translate(148.52 333.35) rotate(-59.84)"/><ellipse class="cls-3" cx="346.41" cy="39.33" rx="3.29" ry="4.74" transform="translate(-0.21 76.79) rotate(-12.65)"/><ellipse class="cls-3" cx="369.99" cy="44.55" rx="4.74" ry="3.29" transform="translate(108.87 310.44) rotate(-52.39)"/><path class="cls-2" d="M330.89,12.08c1.53-.44,3.92.22,5.44,2.83,2.4-1.74,7.4-2.18,8.71,1.74,1.31,4.35-3.7,8.05-7,7.4-.66,2.17-3.92,3.26-5.88,2.17-2.39,2-8.27,1.74-9.58-2.61-1.08-3.7,2.83-6.31,5.44-6.31C328.06,14.47,329.59,12.51,330.89,12.08Z"/><ellipse class="cls-3" cx="324.93" cy="8.03" rx="3.7" ry="5.22" transform="translate(55.13 189.28) rotate(-35.31)"/><ellipse class="cls-3" cx="333.78" cy="5.22" rx="3.7" ry="5.22"/><ellipse class="cls-3" cx="319.5" cy="15.48" rx="3.29" ry="4.74" transform="translate(74.41 221.03) rotate(-42.76)"/><ellipse class="cls-3" cx="342.51" cy="8.17" rx="4.74" ry="3.29" transform="translate(289.7 346.68) rotate(-82.5)"/></g></g></svg>