<svg xmlns="http://www.w3.org/2000/svg" viewBox="0 0 393.6 95.93">
	<defs>
		<style>
			.cls-1,.cls-2{fill:#fff;}.cls-3{fill:#fff;}
		</style>
	</defs>
	<title>
		Asset 2
	</title>
	<g id="Layer_2" data-name="Layer 2">
		<g id="Layer_1-2" data-name="Layer 1">
			<path class="cls-1" d="M55.09,34.5a10.17,10.17,0,0,1,7.67,3.1q3,3.09,3,9.65v26H63.81V47.32q0-5.76-2.52-8.39a8.28,8.28,0,0,0-6.2-2.63,11.4,11.4,0,0,0-8.31,3.13q-3.21,3.14-3.21,10.41v23.4H41.63V47.32q0-5.76-2.52-8.39a8.25,8.25,0,0,0-6.19-2.63,12.4,12.4,0,0,0-5.8,1.37A9.75,9.75,0,0,0,23,42a16.87,16.87,0,0,0-1.55,7.81v23.4H19.45V47.37l1.31-4,.57-1.19.21-.43a12.5,12.5,0,0,1,2.05-3.06,11.36,11.36,0,0,1,3.68-3,12.09,12.09,0,0,1,5.65-1.19,9.65,9.65,0,0,1,9.93,7.85H43a11.82,11.82,0,0,1,4.32-5.69A13.05,13.05,0,0,1,55.09,34.5Z" />
			<path class="cls-1" d="M78.35,21.33a1.53,1.53,0,0,1,1.51.68,3.28,3.28,0,0,1,.36,1.55,3.21,3.21,0,0,1-.36,1.58,1.58,1.58,0,0,1-1.51.65,1.5,1.5,0,0,1-1.44-.65,3.21,3.21,0,0,1-.36-1.58A3.28,3.28,0,0,1,76.91,22,1.46,1.46,0,0,1,78.35,21.33Zm.94,13.89v38h-2v-38Z" />
			<path class="cls-1" d="M106.43,34.5q5.76,0,9,3.39t3.21,10.44V73.24h-1.95V48.4q0-6.34-2.7-9.22t-7.59-2.88A12.46,12.46,0,0,0,97,40q-3.57,3.7-3.56,11.48V73.24h-2v-38H93l.29,8h.14A14.19,14.19,0,0,1,95.88,39a12.24,12.24,0,0,1,4.21-3.24A14.42,14.42,0,0,1,106.43,34.5Z" />
			<path class="cls-1" d="M143.36,74q-7.7,0-11.41-4.9T128.24,55q0-9.87,4-15.16t11.66-5.29a11.4,11.4,0,0,1,7.78,2.59,13.67,13.67,0,0,1,4.1,6.34H156q-.22-4.89-.22-9.29V18.52h2V73.24h-1.59L156,65.1h-.14a13.66,13.66,0,0,1-4.18,6.23Q148.63,74,143.36,74Zm.08-1.8q6.69,0,9.57-4.72t2.88-13.14v-.21q0-8.64-2.95-13.22t-9-4.57q-6.56,0-10.12,4.65t-3.56,14Q130.26,72.16,143.44,72.16Z" />
			<path class="cls-1" d="M181.52,37h-8.06V73.24h-1.94V37H164.6V35.44l6.92-.22v-5.4q0-5.61,2.26-8.64c1.52-2,4-3,7.53-3a16.46,16.46,0,0,1,3.06.25c.89.17,1.74.37,2.55.61l-.28,1.87a12.26,12.26,0,0,0-2.63-.72,18.34,18.34,0,0,0-2.7-.21q-4.25,0-6.05,2.3t-1.8,7.56v5.4h8.06Z" />
			<path class="cls-1" d="M215.29,35.22v38h-1.58l-.29-8h-.15a14,14,0,0,1-2.41,4.21,12.24,12.24,0,0,1-4.21,3.24A14.23,14.23,0,0,1,200.39,74c-4,0-7.08-1.18-9.15-3.53s-3.09-5.78-3.09-10.3V35.22h1.94V59.85q0,6.33,2.66,9.32t7.64,3a12.42,12.42,0,0,0,9.43-3.71q3.52-3.7,3.53-11.48V35.22Z" />
			<path class="cls-1" d="M229.55,73.24h-2V18.52h2Z" />
			<path class="cls-1" d="M240.64,55q1.47-5.51,4.72-7.48c2.17-1.33,5-1.52,8.52-.59a27.15,27.15,0,0,1,4.34,1.58,15.11,15.11,0,0,1,3.85,2.5,8.78,8.78,0,0,1,2.41,3.58,8.09,8.09,0,0,1,0,4.86,13.25,13.25,0,0,1-2.86,5.39A25.24,25.24,0,0,1,257,69a37.67,37.67,0,0,1-5.57,3.18c-2,.92-3.8,1.79-5.52,2.63a3.79,3.79,0,0,0-.44.88,9,9,0,0,0-.34.92,7.72,7.72,0,0,0,.11,4.06c.4,1.45.86,3,1.38,4.48a44.64,44.64,0,0,1,1.31,4.69,9.82,9.82,0,0,1-.08,4.64c-.25.91-.58,1.4-1,1.47a7.59,7.59,0,0,1-2.45-.38,5.5,5.5,0,0,1-1.67-2.72,31.53,31.53,0,0,1-1.12-4.69c-.3-1.82-.54-3.83-.7-6s-.28-4.43-.34-6.7c-.09-2.91-.11-3.72-.11-6.69q0-3.3.07-6.08c0-1.84.07-3.44.09-4.79S240.62,55.52,240.64,55Zm4.68,1.78c-.15.57-.33,1.4-.54,2.5a21.62,21.62,0,0,0-.37,3.32,9.09,9.09,0,0,0,.38,3,2.38,2.38,0,0,0,1.73,1.71,6.62,6.62,0,0,0,3.85-.25,13.76,13.76,0,0,0,4-2.16,18.63,18.63,0,0,0,3.3-3.28,10.2,10.2,0,0,0,1.88-3.54,3.49,3.49,0,0,0-.09-2.41,5,5,0,0,0-1.38-1.76A7.68,7.68,0,0,0,256,52.7a21.52,21.52,0,0,0-2.23-.74,6.94,6.94,0,0,0-5.42.41A6.81,6.81,0,0,0,245.32,56.75Z" />
			<path class="cls-1" d="M269.42,49.33q0-.34,0-1.26c0-.6,0-1.24,0-1.9s0-1.28,0-1.85,0-1,0-1.2a9.36,9.36,0,0,1,1-1.38,3.08,3.08,0,0,1,1.17-.93,2.06,2.06,0,0,1,1.35-.09,2.91,2.91,0,0,1,1.49,1.17v1.23c0,.2-.12.65-.23,1.38s-.26,1.51-.41,2.37-.31,1.65-.44,2.37a10.36,10.36,0,0,0-.21,1.38,20.15,20.15,0,0,0,.24,2.78,34.93,34.93,0,0,0,.67,3.49,31.42,31.42,0,0,0,1.11,3.63,16.41,16.41,0,0,0,1.61,3.25,10.61,10.61,0,0,0,2.08,2.38,4.12,4.12,0,0,0,2.67.93,5.69,5.69,0,0,0,3.31-1,9.3,9.3,0,0,0,2.49-2.58,15.17,15.17,0,0,0,1.73-3.57,32.29,32.29,0,0,0,1.08-4,35.67,35.67,0,0,0,.59-3.89c.12-1.25.18-2.35.18-3.28a16.24,16.24,0,0,0-.21-2.67c-.14-.84-.3-1.67-.5-2.49s-.36-1.63-.5-2.43a15.13,15.13,0,0,1-.2-2.43,1.7,1.7,0,0,1,.79-1.59,3.47,3.47,0,0,1,1.79-.47,2.75,2.75,0,0,1,2,.74,5.07,5.07,0,0,1,1.2,1.84,9.94,9.94,0,0,1,.59,2.55c.09,1,.14,1.91.14,2.84s0,1.83-.06,2.67,0,1.51,0,2a38.51,38.51,0,0,1-.3,4.51,35.19,35.19,0,0,1-1,5.19,43.33,43.33,0,0,1-1.82,5.24,20.38,20.38,0,0,1-2.64,4.6,12.9,12.9,0,0,1-3.57,3.25,8.56,8.56,0,0,1-4.54,1.23,8.39,8.39,0,0,1-4.63-1.26,11.06,11.06,0,0,1-3.37-3.34A21.07,21.07,0,0,1,271.77,64a34.55,34.55,0,0,1-1.44-5.28,47.89,47.89,0,0,1-.7-5.12C269.49,52,269.42,50.54,269.42,49.33Z" />
			<path class="cls-1" d="M310.79,72.6c.62-.43,1.38-1,2.26-1.67s1.76-1.41,2.66-2.2a29.33,29.33,0,0,0,2.52-2.46,14,14,0,0,0,1.85-2.49,4.61,4.61,0,0,0,.67-2.25,2.06,2.06,0,0,0-1.05-1.76q-1.87,0-4.11.15c-1.48.09-3,.13-4.45.11a27.52,27.52,0,0,1-4.31-.38,11.08,11.08,0,0,1-3.72-1.29,6.79,6.79,0,0,1-2.6-2.66,9,9,0,0,1-1-4.43,13.24,13.24,0,0,1,1.2-5.71,15.78,15.78,0,0,1,3.19-4.51,24,24,0,0,1,4.49-3.46,39.42,39.42,0,0,1,5-2.55,7.52,7.52,0,0,1,2.81,1.47,12.63,12.63,0,0,1,2.23,2.34,3.5,3.5,0,0,1-1.62,2,14.88,14.88,0,0,1-2.75,1.23l-3.25,1.12a12,12,0,0,0-3.08,1.55,8,8,0,0,0-2.31,2.52,7.74,7.74,0,0,0-.94,4.07,3.58,3.58,0,0,0,.94,2.75,5,5,0,0,0,2.46,1.21,13.93,13.93,0,0,0,3.46.23c1.29-.06,2.6-.15,3.95-.26s2.67-.19,4-.21a10.55,10.55,0,0,1,3.45.47,4.52,4.52,0,0,1,3.34,4.89,6.56,6.56,0,0,1-.61,2.41A23.86,23.86,0,0,1,323.83,66a28.29,28.29,0,0,1-2.41,3.31,26.91,26.91,0,0,1-2.87,3,18.1,18.1,0,0,1-3,2.17,5.79,5.79,0,0,1-2.79.85,1.57,1.57,0,0,1-1.61-.88A4.47,4.47,0,0,1,310.79,72.6Z" />
			<path class="cls-1" d="M339.72,37.68c-.62.43-1.38,1-2.26,1.67s-1.76,1.41-2.66,2.2A29.33,29.33,0,0,0,332.28,44a14,14,0,0,0-1.85,2.49,4.61,4.61,0,0,0-.67,2.25,2.06,2.06,0,0,0,1.05,1.76q1.88,0,4.11-.15c1.48-.09,3-.13,4.45-.11a27.29,27.29,0,0,1,4.3.38,11.06,11.06,0,0,1,3.73,1.29,6.79,6.79,0,0,1,2.6,2.66A8.94,8.94,0,0,1,351,59a13.24,13.24,0,0,1-1.2,5.71,15.78,15.78,0,0,1-3.19,4.51,24,24,0,0,1-4.49,3.46,6.67,6.67,0,0,1-4.35,1.16,4.84,4.84,0,0,1-3-1,9.72,9.72,0,0,1-2-2c.27-.86,0-1,.92-1.41a25.58,25.58,0,0,1,2.75-1.23l3.25-1.12a12.53,12.53,0,0,0,3.08-1.55A8,8,0,0,0,345.05,63,7.76,7.76,0,0,0,346,59a3.62,3.62,0,0,0-.94-2.76,5.08,5.08,0,0,0-2.46-1.2,13.93,13.93,0,0,0-3.46-.23c-1.29.06-2.6.15-3.95.26s-2.67.19-4,.21a10.55,10.55,0,0,1-3.45-.47,4.49,4.49,0,0,1-3.34-4.89,6.56,6.56,0,0,1,.61-2.41,23.86,23.86,0,0,1,1.64-3.13,29.37,29.37,0,0,1,2.4-3.31,27,27,0,0,1,2.88-3,18.1,18.1,0,0,1,3-2.17,5.68,5.68,0,0,1,2.79-.85,1.56,1.56,0,0,1,1.61.88A4.47,4.47,0,0,1,339.72,37.68Z" />
			<path class="cls-2" d="M377.8,42.12a5.29,5.29,0,0,1,3.26,5c2.83-.22,7.4,2,6.53,6.1-1.09,4.35-7.18,5.22-9.57,2.82A4.53,4.53,0,0,1,371.7,55c-3,.65-7.83-2.62-7-7,.87-3.92,5.44-4.13,8.05-2.83A5.23,5.23,0,0,1,377.8,42.12Z" />
			<ellipse class="cls-1" cx="374.57" cy="35.62" rx="3.7" ry="5.22" transform="translate(-1.69 34.06) rotate(-5.19)" />
			<ellipse class="cls-1" cx="383.63" cy="37.62" rx="5.22" ry="3.7" transform="translate(158.33 350.4) rotate(-59.84)" />
			<ellipse class="cls-1" cx="366.14" cy="39.33" rx="3.29" ry="4.74" transform="translate(0.27 81.11) rotate(-12.65)" />
			<ellipse class="cls-1" cx="389.71" cy="44.55" rx="4.74" ry="3.29" transform="translate(116.56 326.06) rotate(-52.39)" />
			<path class="cls-2" d="M350.62,12.08c1.52-.44,3.91.22,5.44,2.83,2.39-1.74,7.4-2.18,8.7,1.74,1.31,4.35-3.7,8.05-7,7.4-.66,2.17-3.92,3.26-5.88,2.17-2.39,2-8.27,1.74-9.57-2.61-1.09-3.7,2.83-6.31,5.44-6.31C347.79,14.47,349.31,12.51,350.62,12.08Z" />
			<ellipse class="cls-1" cx="344.65" cy="8.03" rx="3.7" ry="5.22" transform="translate(58.76 200.68) rotate(-35.31)" />
			<ellipse class="cls-1" cx="353.5" cy="5.22" rx="3.7" ry="5.22" />
			<ellipse class="cls-1" cx="339.22" cy="15.48" rx="3.29" ry="4.74" transform="translate(79.65 234.42) rotate(-42.76)" />
			<ellipse class="cls-1" cx="362.23" cy="8.17" rx="4.74" ry="3.29" transform="translate(306.85 366.24) rotate(-82.5)" />
			<path class="cls-3" d="M2,23.63Q-.83,19.72.34,15.8T6.07,8.59A34.64,34.64,0,0,1,13.9,4.33a30.59,30.59,0,0,1,8.37-2,18.45,18.45,0,0,1,7.64.82,11.46,11.46,0,0,1,5.72,4.24A8.37,8.37,0,0,1,37.18,15Q36,18.88,31.53,22.11a36.65,36.65,0,0,1-7.79,4.31,30.93,30.93,0,0,1-8.31,2.16,18.14,18.14,0,0,1-7.64-.7A11.23,11.23,0,0,1,2,23.63Zm1.44-.87A9.42,9.42,0,0,0,8.62,26.4a16.94,16.94,0,0,0,7,.41,30.54,30.54,0,0,0,7.69-2.16,36.49,36.49,0,0,0,7.14-4,12.92,12.92,0,0,0,4.93-6,6.75,6.75,0,0,0-1.21-6.43,9.47,9.47,0,0,0-5.08-3.59,17.86,17.86,0,0,0-7-.57,28.46,28.46,0,0,0-7.7,2,33.64,33.64,0,0,0-7.27,4q-4,2.88-5,6.15A7.12,7.12,0,0,0,3.46,22.76Z" />
		</g>
	</g>
</svg>
